<svg id="visual" viewBox="0 0 900 600" width="900" height="600" xmlns="http://www.w3.org/2000/svg" xmlns:xlink="http://www.w3.org/1999/xlink" version="1.1"><g stroke-width="1" stroke-linejoin="bevel"><path d="M436 294L411 265L383 281Z" fill="#00afee" stroke="#00afee"></path><path d="M383 281L387 336L436 294Z" fill="#0083e5" stroke="#0083e5"></path><path d="M411 265L362 259L383 281Z" fill="#2d3dbc" stroke="#2d3dbc"></path><path d="M383 281L344 289L387 336Z" fill="#1d50c8" stroke="#1d50c8"></path><path d="M362 259L344 289L383 281Z" fill="#0073dd" stroke="#0073dd"></path><path d="M472 229L422 221L411 265Z" fill="#00a1ec" stroke="#00a1ec"></path><path d="M411 265L422 221L362 259Z" fill="#00afee" stroke="#00afee"></path><path d="M451 370L486 327L436 294Z" fill="#05bcee" stroke="#05bcee"></path><path d="M436 294L472 229L411 265Z" fill="#00a1ec" stroke="#00a1ec"></path><path d="M486 327L492 268L436 294Z" fill="#43009d" stroke="#43009d"></path><path d="M344 289L355 363L387 336Z" fill="#3927ad" stroke="#3927ad"></path><path d="M387 336L451 370L436 294Z" fill="#0083e5" stroke="#0083e5"></path><path d="M446 378L451 370L387 336Z" fill="#00afee" stroke="#00afee"></path><path d="M492 268L472 229L436 294Z" fill="#00a1ec" stroke="#00a1ec"></path><path d="M415 408L446 378L387 336Z" fill="#0083e5" stroke="#0083e5"></path><path d="M544 332L520 294L486 327Z" fill="#00afee" stroke="#00afee"></path><path d="M362 259L314 293L344 289Z" fill="#05bcee" stroke="#05bcee"></path><path d="M344 289L314 293L355 363Z" fill="#0092ea" stroke="#0092ea"></path><path d="M472 229L434 187L422 221Z" fill="#0083e5" stroke="#0083e5"></path><path d="M422 221L356 195L362 259Z" fill="#05bcee" stroke="#05bcee"></path><path d="M362 259L291 237L314 293Z" fill="#1d50c8" stroke="#1d50c8"></path><path d="M434 187L356 195L422 221Z" fill="#0b62d3" stroke="#0b62d3"></path><path d="M546 287L520 294L544 332Z" fill="#00a1ec" stroke="#00a1ec"></path><path d="M486 327L520 294L492 268Z" fill="#0083e5" stroke="#0083e5"></path><path d="M492 268L505 217L472 229Z" fill="#3927ad" stroke="#3927ad"></path><path d="M355 363L415 408L387 336Z" fill="#05bcee" stroke="#05bcee"></path><path d="M566 254L505 217L492 268Z" fill="#0073dd" stroke="#0073dd"></path><path d="M472 229L444 162L434 187Z" fill="#0083e5" stroke="#0083e5"></path><path d="M314 293L294 347L355 363Z" fill="#0073dd" stroke="#0073dd"></path><path d="M355 363L346 409L415 408Z" fill="#1d50c8" stroke="#1d50c8"></path><path d="M313 196L291 237L362 259Z" fill="#00afee" stroke="#00afee"></path><path d="M314 293L242 281L294 347Z" fill="#1d50c8" stroke="#1d50c8"></path><path d="M294 347L346 409L355 363Z" fill="#43009d" stroke="#43009d"></path><path d="M505 217L444 162L472 229Z" fill="#0092ea" stroke="#0092ea"></path><path d="M379 128L340 156L356 195Z" fill="#43009d" stroke="#43009d"></path><path d="M317 170L313 196L356 195Z" fill="#2d3dbc" stroke="#2d3dbc"></path><path d="M356 195L313 196L362 259Z" fill="#0b62d3" stroke="#0b62d3"></path><path d="M544 332L486 327L538 386Z" fill="#00afee" stroke="#00afee"></path><path d="M520 294L546 287L492 268Z" fill="#0092ea" stroke="#0092ea"></path><path d="M486 327L451 370L507 411Z" fill="#00a1ec" stroke="#00a1ec"></path><path d="M507 411L451 370L446 378Z" fill="#1d50c8" stroke="#1d50c8"></path><path d="M401 447L443 432L415 408Z" fill="#3927ad" stroke="#3927ad"></path><path d="M415 408L443 432L446 378Z" fill="#05bcee" stroke="#05bcee"></path><path d="M322 447L348 432L346 409Z" fill="#0092ea" stroke="#0092ea"></path><path d="M346 409L348 432L415 408Z" fill="#2d3dbc" stroke="#2d3dbc"></path><path d="M379 128L356 195L434 187Z" fill="#0b62d3" stroke="#0b62d3"></path><path d="M340 156L317 170L356 195Z" fill="#0073dd" stroke="#0073dd"></path><path d="M229 213L258 247L291 237Z" fill="#00afee" stroke="#00afee"></path><path d="M443 432L507 411L446 378Z" fill="#0b62d3" stroke="#0b62d3"></path><path d="M348 432L401 447L415 408Z" fill="#00a1ec" stroke="#00a1ec"></path><path d="M443 432L521 437L507 411Z" fill="#0083e5" stroke="#0083e5"></path><path d="M566 254L534 201L505 217Z" fill="#00a1ec" stroke="#00a1ec"></path><path d="M505 217L534 169L444 162Z" fill="#0083e5" stroke="#0083e5"></path><path d="M229 213L291 237L313 196Z" fill="#00a1ec" stroke="#00a1ec"></path><path d="M291 237L258 247L314 293Z" fill="#0073dd" stroke="#0073dd"></path><path d="M507 411L538 386L486 327Z" fill="#43009d" stroke="#43009d"></path><path d="M597 310L566 254L546 287Z" fill="#00afee" stroke="#00afee"></path><path d="M546 287L566 254L492 268Z" fill="#05bcee" stroke="#05bcee"></path><path d="M577 238L566 254L597 310Z" fill="#0092ea" stroke="#0092ea"></path><path d="M258 247L242 281L314 293Z" fill="#00a1ec" stroke="#00a1ec"></path><path d="M294 347L279 416L346 409Z" fill="#0b62d3" stroke="#0b62d3"></path><path d="M365 115L379 128L417 97Z" fill="#00a1ec" stroke="#00a1ec"></path><path d="M444 162L379 128L434 187Z" fill="#00afee" stroke="#00afee"></path><path d="M297 84L243 144L317 170Z" fill="#43009d" stroke="#43009d"></path><path d="M230 355L263 392L294 347Z" fill="#0092ea" stroke="#0092ea"></path><path d="M581 170L534 169L534 201Z" fill="#3927ad" stroke="#3927ad"></path><path d="M534 201L534 169L505 217Z" fill="#0083e5" stroke="#0083e5"></path><path d="M279 416L322 447L346 409Z" fill="#0092ea" stroke="#0092ea"></path><path d="M348 432L347 482L401 447Z" fill="#00afee" stroke="#00afee"></path><path d="M597 310L546 287L544 332Z" fill="#43009d" stroke="#43009d"></path><path d="M566 254L577 238L534 201Z" fill="#00a1ec" stroke="#00a1ec"></path><path d="M263 392L279 416L294 347Z" fill="#00afee" stroke="#00afee"></path><path d="M417 97L379 128L444 162Z" fill="#1d50c8" stroke="#1d50c8"></path><path d="M379 128L365 115L340 156Z" fill="#3927ad" stroke="#3927ad"></path><path d="M529 472L521 437L443 432Z" fill="#0b62d3" stroke="#0b62d3"></path><path d="M507 411L521 437L538 386Z" fill="#0b62d3" stroke="#0b62d3"></path><path d="M242 281L230 355L294 347Z" fill="#3927ad" stroke="#3927ad"></path><path d="M263 392L231 463L279 416Z" fill="#2d3dbc" stroke="#2d3dbc"></path><path d="M613 333L544 332L614 381Z" fill="#2d3dbc" stroke="#2d3dbc"></path><path d="M613 333L597 310L544 332Z" fill="#0083e5" stroke="#0083e5"></path><path d="M554 105L518 135L534 169Z" fill="#0092ea" stroke="#0092ea"></path><path d="M534 169L518 135L444 162Z" fill="#00a1ec" stroke="#00a1ec"></path><path d="M666 271L586 211L577 238Z" fill="#1d50c8" stroke="#1d50c8"></path><path d="M577 238L586 211L534 201Z" fill="#2d3dbc" stroke="#2d3dbc"></path><path d="M480 99L457 103L444 162Z" fill="#00a1ec" stroke="#00a1ec"></path><path d="M457 103L417 97L444 162Z" fill="#3927ad" stroke="#3927ad"></path><path d="M243 144L313 196L317 170Z" fill="#0073dd" stroke="#0073dd"></path><path d="M243 144L229 213L313 196Z" fill="#05bcee" stroke="#05bcee"></path><path d="M258 247L203 262L242 281Z" fill="#0092ea" stroke="#0092ea"></path><path d="M242 281L190 348L230 355Z" fill="#43009d" stroke="#43009d"></path><path d="M322 447L347 482L348 432Z" fill="#0083e5" stroke="#0083e5"></path><path d="M401 447L423 501L443 432Z" fill="#05bcee" stroke="#05bcee"></path><path d="M297 507L347 482L322 447Z" fill="#0b62d3" stroke="#0b62d3"></path><path d="M220 135L222 216L229 213Z" fill="#43009d" stroke="#43009d"></path><path d="M229 213L222 216L258 247Z" fill="#05bcee" stroke="#05bcee"></path><path d="M518 135L480 99L444 162Z" fill="#00afee" stroke="#00afee"></path><path d="M435 39L388 47L417 97Z" fill="#00a1ec" stroke="#00a1ec"></path><path d="M222 216L203 262L258 247Z" fill="#0b62d3" stroke="#0b62d3"></path><path d="M614 381L544 332L538 386Z" fill="#00a1ec" stroke="#00a1ec"></path><path d="M597 310L647 286L577 238Z" fill="#2d3dbc" stroke="#2d3dbc"></path><path d="M347 482L423 501L401 447Z" fill="#1d50c8" stroke="#1d50c8"></path><path d="M630 128L581 170L661 177Z" fill="#2d3dbc" stroke="#2d3dbc"></path><path d="M586 211L581 170L534 201Z" fill="#2d3dbc" stroke="#2d3dbc"></path><path d="M518 135L554 105L480 99Z" fill="#05bcee" stroke="#05bcee"></path><path d="M386 544L426 506L423 501Z" fill="#2d3dbc" stroke="#2d3dbc"></path><path d="M423 501L478 520L443 432Z" fill="#00afee" stroke="#00afee"></path><path d="M478 520L529 472L443 432Z" fill="#1d50c8" stroke="#1d50c8"></path><path d="M614 436L614 381L538 386Z" fill="#3927ad" stroke="#3927ad"></path><path d="M297 84L317 170L340 156Z" fill="#3927ad" stroke="#3927ad"></path><path d="M156 270L185 280L203 262Z" fill="#00a1ec" stroke="#00a1ec"></path><path d="M297 84L340 156L365 115Z" fill="#0092ea" stroke="#0092ea"></path><path d="M156 270L203 262L155 193Z" fill="#3927ad" stroke="#3927ad"></path><path d="M203 262L185 280L242 281Z" fill="#0083e5" stroke="#0083e5"></path><path d="M614 436L538 386L521 437Z" fill="#00a1ec" stroke="#00a1ec"></path><path d="M185 280L190 348L242 281Z" fill="#00a1ec" stroke="#00a1ec"></path><path d="M187 408L231 463L263 392Z" fill="#0092ea" stroke="#0092ea"></path><path d="M231 463L297 507L322 447Z" fill="#05bcee" stroke="#05bcee"></path><path d="M388 47L365 115L417 97Z" fill="#0092ea" stroke="#0092ea"></path><path d="M315 52L297 84L365 115Z" fill="#0073dd" stroke="#0073dd"></path><path d="M581 170L554 105L534 169Z" fill="#0092ea" stroke="#0092ea"></path><path d="M435 39L417 97L457 103Z" fill="#05bcee" stroke="#05bcee"></path><path d="M426 506L478 520L423 501Z" fill="#00afee" stroke="#00afee"></path><path d="M641 368L647 286L613 333Z" fill="#3927ad" stroke="#3927ad"></path><path d="M613 333L647 286L597 310Z" fill="#0083e5" stroke="#0083e5"></path><path d="M620 91L557 64L554 105Z" fill="#0092ea" stroke="#0092ea"></path><path d="M231 463L322 447L279 416Z" fill="#0092ea" stroke="#0092ea"></path><path d="M347 482L386 544L423 501Z" fill="#00afee" stroke="#00afee"></path><path d="M426 506L436 548L478 520Z" fill="#00afee" stroke="#00afee"></path><path d="M668 397L641 368L614 381Z" fill="#0083e5" stroke="#0083e5"></path><path d="M614 381L641 368L613 333Z" fill="#0092ea" stroke="#0092ea"></path><path d="M614 436L521 437L529 472Z" fill="#3927ad" stroke="#3927ad"></path><path d="M262 91L220 135L243 144Z" fill="#0b62d3" stroke="#0b62d3"></path><path d="M243 144L220 135L229 213Z" fill="#0b62d3" stroke="#0b62d3"></path><path d="M187 408L263 392L230 355Z" fill="#43009d" stroke="#43009d"></path><path d="M435 39L457 103L480 99Z" fill="#3927ad" stroke="#3927ad"></path><path d="M263 66L262 91L297 84Z" fill="#0083e5" stroke="#0083e5"></path><path d="M297 84L262 91L243 144Z" fill="#00a1ec" stroke="#00a1ec"></path><path d="M190 348L187 408L230 355Z" fill="#2d3dbc" stroke="#2d3dbc"></path><path d="M141 371L187 408L190 348Z" fill="#0083e5" stroke="#0083e5"></path><path d="M579 509L614 436L529 472Z" fill="#1d50c8" stroke="#1d50c8"></path><path d="M328 549L386 544L347 482Z" fill="#43009d" stroke="#43009d"></path><path d="M155 193L203 262L222 216Z" fill="#1d50c8" stroke="#1d50c8"></path><path d="M185 280L127 312L190 348Z" fill="#0073dd" stroke="#0073dd"></path><path d="M491 535L540 509L478 520Z" fill="#0092ea" stroke="#0092ea"></path><path d="M478 520L540 509L529 472Z" fill="#00afee" stroke="#00afee"></path><path d="M496 32L435 39L480 99Z" fill="#05bcee" stroke="#05bcee"></path><path d="M436 548L491 535L478 520Z" fill="#0b62d3" stroke="#0b62d3"></path><path d="M386 544L436 548L426 506Z" fill="#43009d" stroke="#43009d"></path><path d="M349 32L315 52L365 115Z" fill="#00afee" stroke="#00afee"></path><path d="M349 32L365 115L388 47Z" fill="#0083e5" stroke="#0083e5"></path><path d="M704 295L666 271L647 286Z" fill="#3927ad" stroke="#3927ad"></path><path d="M647 286L666 271L577 238Z" fill="#3927ad" stroke="#3927ad"></path><path d="M262 91L212 123L220 135Z" fill="#1d50c8" stroke="#1d50c8"></path><path d="M166 167L155 193L222 216Z" fill="#2d3dbc" stroke="#2d3dbc"></path><path d="M206 41L212 123L262 91Z" fill="#0b62d3" stroke="#0b62d3"></path><path d="M231 463L264 510L297 507Z" fill="#0073dd" stroke="#0073dd"></path><path d="M297 507L328 549L347 482Z" fill="#00a1ec" stroke="#00a1ec"></path><path d="M197 484L264 510L231 463Z" fill="#3927ad" stroke="#3927ad"></path><path d="M386 0L349 32L388 47Z" fill="#3927ad" stroke="#3927ad"></path><path d="M292 549L328 549L297 507Z" fill="#3927ad" stroke="#3927ad"></path><path d="M386 544L417 600L436 548Z" fill="#05bcee" stroke="#05bcee"></path><path d="M296 0L263 66L315 52Z" fill="#0073dd" stroke="#0073dd"></path><path d="M315 52L263 66L297 84Z" fill="#1d50c8" stroke="#1d50c8"></path><path d="M657 503L640 431L614 436Z" fill="#2d3dbc" stroke="#2d3dbc"></path><path d="M614 436L640 431L614 381Z" fill="#0073dd" stroke="#0073dd"></path><path d="M641 368L704 295L647 286Z" fill="#0083e5" stroke="#0083e5"></path><path d="M166 167L222 216L220 135Z" fill="#3927ad" stroke="#3927ad"></path><path d="M630 128L554 105L581 170Z" fill="#43009d" stroke="#43009d"></path><path d="M554 105L557 64L480 99Z" fill="#00afee" stroke="#00afee"></path><path d="M122 135L166 167L147 80Z" fill="#3927ad" stroke="#3927ad"></path><path d="M212 123L166 167L220 135Z" fill="#2d3dbc" stroke="#2d3dbc"></path><path d="M557 64L496 32L480 99Z" fill="#00a1ec" stroke="#00a1ec"></path><path d="M435 39L386 0L388 47Z" fill="#0073dd" stroke="#0073dd"></path><path d="M546 570L579 509L540 509Z" fill="#2d3dbc" stroke="#2d3dbc"></path><path d="M540 509L579 509L529 472Z" fill="#2d3dbc" stroke="#2d3dbc"></path><path d="M661 177L581 170L586 211Z" fill="#1d50c8" stroke="#1d50c8"></path><path d="M690 217L661 177L586 211Z" fill="#43009d" stroke="#43009d"></path><path d="M127 312L185 280L156 270Z" fill="#00afee" stroke="#00afee"></path><path d="M127 312L141 371L190 348Z" fill="#0083e5" stroke="#0083e5"></path><path d="M187 408L189 472L231 463Z" fill="#43009d" stroke="#43009d"></path><path d="M706 382L668 397L682 473Z" fill="#2d3dbc" stroke="#2d3dbc"></path><path d="M640 431L668 397L614 381Z" fill="#00afee" stroke="#00afee"></path><path d="M246 545L292 549L264 510Z" fill="#0083e5" stroke="#0083e5"></path><path d="M264 510L292 549L297 507Z" fill="#0073dd" stroke="#0073dd"></path><path d="M103 304L127 312L99 265Z" fill="#05bcee" stroke="#05bcee"></path><path d="M154 461L189 472L187 408Z" fill="#2d3dbc" stroke="#2d3dbc"></path><path d="M189 472L197 484L231 463Z" fill="#0b62d3" stroke="#0b62d3"></path><path d="M721 239L690 217L666 271Z" fill="#00a1ec" stroke="#00a1ec"></path><path d="M666 271L690 217L586 211Z" fill="#1d50c8" stroke="#1d50c8"></path><path d="M639 93L620 91L630 128Z" fill="#0092ea" stroke="#0092ea"></path><path d="M639 93L630 128L678 106Z" fill="#05bcee" stroke="#05bcee"></path><path d="M630 128L620 91L554 105Z" fill="#1d50c8" stroke="#1d50c8"></path><path d="M550 0L476 0L496 32Z" fill="#3927ad" stroke="#3927ad"></path><path d="M432 0L386 0L435 39Z" fill="#00a1ec" stroke="#00a1ec"></path><path d="M349 32L296 0L315 52Z" fill="#1d50c8" stroke="#1d50c8"></path><path d="M476 0L435 39L496 32Z" fill="#43009d" stroke="#43009d"></path><path d="M476 0L432 0L435 39Z" fill="#00afee" stroke="#00afee"></path><path d="M720 350L704 295L641 368Z" fill="#00a1ec" stroke="#00a1ec"></path><path d="M386 0L357 0L349 32Z" fill="#05bcee" stroke="#05bcee"></path><path d="M127 312L115 347L141 371Z" fill="#00a1ec" stroke="#00a1ec"></path><path d="M141 371L128 408L187 408Z" fill="#0092ea" stroke="#0092ea"></path><path d="M103 304L115 347L127 312Z" fill="#1d50c8" stroke="#1d50c8"></path><path d="M219 546L246 545L264 510Z" fill="#0083e5" stroke="#0083e5"></path><path d="M550 0L496 32L557 64Z" fill="#0b62d3" stroke="#0b62d3"></path><path d="M189 472L161 515L197 484Z" fill="#00afee" stroke="#00afee"></path><path d="M197 484L219 546L264 510Z" fill="#0083e5" stroke="#0083e5"></path><path d="M80 379L128 408L141 371Z" fill="#43009d" stroke="#43009d"></path><path d="M128 408L154 461L187 408Z" fill="#43009d" stroke="#43009d"></path><path d="M678 106L630 128L661 177Z" fill="#00afee" stroke="#00afee"></path><path d="M620 91L587 33L557 64Z" fill="#43009d" stroke="#43009d"></path><path d="M99 265L127 312L156 270Z" fill="#0083e5" stroke="#0083e5"></path><path d="M115 347L80 379L141 371Z" fill="#00a1ec" stroke="#00a1ec"></path><path d="M99 265L156 270L155 193Z" fill="#43009d" stroke="#43009d"></path><path d="M347 600L417 600L386 544Z" fill="#1d50c8" stroke="#1d50c8"></path><path d="M436 548L485 600L491 535Z" fill="#00a1ec" stroke="#00a1ec"></path><path d="M491 535L546 570L540 509Z" fill="#00afee" stroke="#00afee"></path><path d="M347 600L386 544L328 549Z" fill="#00a1ec" stroke="#00a1ec"></path><path d="M347 600L328 549L290 600Z" fill="#2d3dbc" stroke="#2d3dbc"></path><path d="M485 600L546 570L491 535Z" fill="#00afee" stroke="#00afee"></path><path d="M682 473L668 397L640 431Z" fill="#43009d" stroke="#43009d"></path><path d="M417 600L451 600L436 548Z" fill="#3927ad" stroke="#3927ad"></path><path d="M83 214L99 265L155 193Z" fill="#3927ad" stroke="#3927ad"></path><path d="M668 397L706 382L641 368Z" fill="#0083e5" stroke="#0083e5"></path><path d="M657 503L614 436L579 509Z" fill="#00afee" stroke="#00afee"></path><path d="M290 600L328 549L292 549Z" fill="#43009d" stroke="#43009d"></path><path d="M357 0L296 0L349 32Z" fill="#0083e5" stroke="#0083e5"></path><path d="M263 66L206 41L262 91Z" fill="#2d3dbc" stroke="#2d3dbc"></path><path d="M618 0L587 33L663 33Z" fill="#3927ad" stroke="#3927ad"></path><path d="M167 529L219 546L197 484Z" fill="#0092ea" stroke="#0092ea"></path><path d="M246 545L290 600L292 549Z" fill="#00afee" stroke="#00afee"></path><path d="M451 600L485 600L436 548Z" fill="#0092ea" stroke="#0092ea"></path><path d="M706 382L720 350L641 368Z" fill="#0092ea" stroke="#0092ea"></path><path d="M730 266L721 239L666 271Z" fill="#05bcee" stroke="#05bcee"></path><path d="M730 266L666 271L704 295Z" fill="#00afee" stroke="#00afee"></path><path d="M719 131L678 106L661 177Z" fill="#0092ea" stroke="#0092ea"></path><path d="M233 0L206 41L263 66Z" fill="#0073dd" stroke="#0073dd"></path><path d="M166 167L122 135L155 193Z" fill="#1d50c8" stroke="#1d50c8"></path><path d="M767 277L730 266L704 295Z" fill="#3927ad" stroke="#3927ad"></path><path d="M587 33L550 0L557 64Z" fill="#00a1ec" stroke="#00a1ec"></path><path d="M646 529L657 503L579 509Z" fill="#0073dd" stroke="#0073dd"></path><path d="M742 402L755 336L720 350Z" fill="#0083e5" stroke="#0083e5"></path><path d="M557 600L592 562L546 570Z" fill="#1d50c8" stroke="#1d50c8"></path><path d="M546 570L592 562L579 509Z" fill="#0b62d3" stroke="#0b62d3"></path><path d="M147 80L166 167L212 123Z" fill="#2d3dbc" stroke="#2d3dbc"></path><path d="M657 503L682 473L640 431Z" fill="#00afee" stroke="#00afee"></path><path d="M729 162L661 177L690 217Z" fill="#00a1ec" stroke="#00a1ec"></path><path d="M663 33L587 33L620 91Z" fill="#00afee" stroke="#00afee"></path><path d="M587 33L618 0L550 0Z" fill="#43009d" stroke="#43009d"></path><path d="M729 162L690 217L762 195Z" fill="#3927ad" stroke="#3927ad"></path><path d="M228 600L290 600L246 545Z" fill="#0073dd" stroke="#0073dd"></path><path d="M103 479L161 515L154 461Z" fill="#00afee" stroke="#00afee"></path><path d="M154 461L161 515L189 472Z" fill="#00afee" stroke="#00afee"></path><path d="M219 546L228 600L246 545Z" fill="#05bcee" stroke="#05bcee"></path><path d="M122 135L83 214L155 193Z" fill="#05bcee" stroke="#05bcee"></path><path d="M27 353L80 379L103 304Z" fill="#0083e5" stroke="#0083e5"></path><path d="M592 562L646 529L579 509Z" fill="#1d50c8" stroke="#1d50c8"></path><path d="M723 521L743 468L682 473Z" fill="#3927ad" stroke="#3927ad"></path><path d="M206 41L147 80L212 123Z" fill="#1d50c8" stroke="#1d50c8"></path><path d="M122 135L56 202L83 214Z" fill="#0083e5" stroke="#0083e5"></path><path d="M161 515L167 529L197 484Z" fill="#0073dd" stroke="#0073dd"></path><path d="M44 286L103 304L99 265Z" fill="#3927ad" stroke="#3927ad"></path><path d="M103 304L80 379L115 347Z" fill="#43009d" stroke="#43009d"></path><path d="M84 445L103 479L154 461Z" fill="#0b62d3" stroke="#0b62d3"></path><path d="M161 515L80 556L167 529Z" fill="#00afee" stroke="#00afee"></path><path d="M296 0L233 0L263 66Z" fill="#0092ea" stroke="#0092ea"></path><path d="M206 41L136 31L147 80Z" fill="#2d3dbc" stroke="#2d3dbc"></path><path d="M485 600L557 600L546 570Z" fill="#2d3dbc" stroke="#2d3dbc"></path><path d="M592 562L637 600L646 529Z" fill="#3927ad" stroke="#3927ad"></path><path d="M762 195L690 217L721 239Z" fill="#00a1ec" stroke="#00a1ec"></path><path d="M233 0L221 0L206 41Z" fill="#0083e5" stroke="#0083e5"></path><path d="M742 402L720 350L706 382Z" fill="#0092ea" stroke="#0092ea"></path><path d="M720 350L755 336L704 295Z" fill="#05bcee" stroke="#05bcee"></path><path d="M730 266L767 277L721 239Z" fill="#00afee" stroke="#00afee"></path><path d="M729 162L719 131L661 177Z" fill="#2d3dbc" stroke="#2d3dbc"></path><path d="M663 33L620 91L639 93Z" fill="#0b62d3" stroke="#0b62d3"></path><path d="M682 473L742 402L706 382Z" fill="#2d3dbc" stroke="#2d3dbc"></path><path d="M743 468L742 402L682 473Z" fill="#2d3dbc" stroke="#2d3dbc"></path><path d="M214 600L228 600L219 546Z" fill="#05bcee" stroke="#05bcee"></path><path d="M84 445L154 461L128 408Z" fill="#43009d" stroke="#43009d"></path><path d="M168 600L214 600L219 546Z" fill="#1d50c8" stroke="#1d50c8"></path><path d="M80 379L84 445L128 408Z" fill="#00afee" stroke="#00afee"></path><path d="M797 316L767 277L755 336Z" fill="#0073dd" stroke="#0073dd"></path><path d="M755 336L767 277L704 295Z" fill="#0073dd" stroke="#0073dd"></path><path d="M767 116L736 72L719 131Z" fill="#0b62d3" stroke="#0b62d3"></path><path d="M684 57L639 93L678 106Z" fill="#0083e5" stroke="#0083e5"></path><path d="M736 72L684 57L678 106Z" fill="#0092ea" stroke="#0092ea"></path><path d="M168 600L219 546L167 529Z" fill="#43009d" stroke="#43009d"></path><path d="M28 147L56 202L122 135Z" fill="#00a1ec" stroke="#00a1ec"></path><path d="M28 265L44 286L99 265Z" fill="#0b62d3" stroke="#0b62d3"></path><path d="M80 379L34 429L84 445Z" fill="#0b62d3" stroke="#0b62d3"></path><path d="M684 57L663 33L639 93Z" fill="#0092ea" stroke="#0092ea"></path><path d="M28 265L99 265L83 214Z" fill="#0092ea" stroke="#0092ea"></path><path d="M557 600L608 600L592 562Z" fill="#00afee" stroke="#00afee"></path><path d="M723 521L682 473L657 503Z" fill="#00a1ec" stroke="#00a1ec"></path><path d="M767 277L762 195L721 239Z" fill="#0083e5" stroke="#0083e5"></path><path d="M719 131L736 72L678 106Z" fill="#0b62d3" stroke="#0b62d3"></path><path d="M136 31L105 81L147 80Z" fill="#3927ad" stroke="#3927ad"></path><path d="M147 80L105 81L122 135Z" fill="#0092ea" stroke="#0092ea"></path><path d="M162 0L136 31L206 41Z" fill="#0b62d3" stroke="#0b62d3"></path><path d="M676 566L657 503L646 529Z" fill="#00afee" stroke="#00afee"></path><path d="M815 400L795 332L755 336Z" fill="#0083e5" stroke="#0083e5"></path><path d="M0 245L28 265L56 202Z" fill="#2d3dbc" stroke="#2d3dbc"></path><path d="M56 202L28 265L83 214Z" fill="#0092ea" stroke="#0092ea"></path><path d="M44 286L27 353L103 304Z" fill="#2d3dbc" stroke="#2d3dbc"></path><path d="M221 0L162 0L206 41Z" fill="#05bcee" stroke="#05bcee"></path><path d="M637 600L676 566L646 529Z" fill="#2d3dbc" stroke="#2d3dbc"></path><path d="M608 600L637 600L592 562Z" fill="#0083e5" stroke="#0083e5"></path><path d="M0 296L27 353L44 286Z" fill="#0083e5" stroke="#0083e5"></path><path d="M84 445L34 513L103 479Z" fill="#00afee" stroke="#00afee"></path><path d="M701 0L660 0L663 33Z" fill="#3927ad" stroke="#3927ad"></path><path d="M663 33L660 0L618 0Z" fill="#0083e5" stroke="#0083e5"></path><path d="M701 0L663 33L684 57Z" fill="#00a1ec" stroke="#00a1ec"></path><path d="M815 400L755 336L742 402Z" fill="#00a1ec" stroke="#00a1ec"></path><path d="M767 277L797 268L762 195Z" fill="#05bcee" stroke="#05bcee"></path><path d="M676 566L723 521L657 503Z" fill="#05bcee" stroke="#05bcee"></path><path d="M743 468L811 462L742 402Z" fill="#0092ea" stroke="#0092ea"></path><path d="M795 332L797 316L755 336Z" fill="#43009d" stroke="#43009d"></path><path d="M797 316L797 268L767 277Z" fill="#00a1ec" stroke="#00a1ec"></path><path d="M27 353L30 386L80 379Z" fill="#00a1ec" stroke="#00a1ec"></path><path d="M93 600L168 600L167 529Z" fill="#0083e5" stroke="#0083e5"></path><path d="M80 556L161 515L103 479Z" fill="#3927ad" stroke="#3927ad"></path><path d="M767 116L729 162L790 136Z" fill="#00a1ec" stroke="#00a1ec"></path><path d="M767 116L719 131L729 162Z" fill="#0b62d3" stroke="#0b62d3"></path><path d="M30 386L34 429L80 379Z" fill="#00a1ec" stroke="#00a1ec"></path><path d="M790 136L729 162L762 195Z" fill="#0092ea" stroke="#0092ea"></path><path d="M136 31L100 36L105 81Z" fill="#00a1ec" stroke="#00a1ec"></path><path d="M27 120L28 147L122 135Z" fill="#1d50c8" stroke="#1d50c8"></path><path d="M87 0L100 36L136 31Z" fill="#3927ad" stroke="#3927ad"></path><path d="M791 483L766 482L815 554Z" fill="#3927ad" stroke="#3927ad"></path><path d="M723 521L766 482L743 468Z" fill="#0073dd" stroke="#0073dd"></path><path d="M834 255L804 205L797 268Z" fill="#1d50c8" stroke="#1d50c8"></path><path d="M797 268L804 205L762 195Z" fill="#05bcee" stroke="#05bcee"></path><path d="M27 120L122 135L105 81Z" fill="#2d3dbc" stroke="#2d3dbc"></path><path d="M28 265L0 296L44 286Z" fill="#0083e5" stroke="#0083e5"></path><path d="M27 353L0 372L30 386Z" fill="#1d50c8" stroke="#1d50c8"></path><path d="M30 386L0 376L34 429Z" fill="#0b62d3" stroke="#0b62d3"></path><path d="M0 245L0 296L28 265Z" fill="#1d50c8" stroke="#1d50c8"></path><path d="M637 600L677 600L676 566Z" fill="#00afee" stroke="#00afee"></path><path d="M676 566L739 571L723 521Z" fill="#1d50c8" stroke="#1d50c8"></path><path d="M0 180L0 245L56 202Z" fill="#00afee" stroke="#00afee"></path><path d="M100 36L65 66L105 81Z" fill="#43009d" stroke="#43009d"></path><path d="M804 205L790 136L762 195Z" fill="#43009d" stroke="#43009d"></path><path d="M767 116L783 101L736 72Z" fill="#3927ad" stroke="#3927ad"></path><path d="M756 0L701 0L736 72Z" fill="#00afee" stroke="#00afee"></path><path d="M736 72L701 0L684 57Z" fill="#0073dd" stroke="#0073dd"></path><path d="M0 296L0 372L27 353Z" fill="#3927ad" stroke="#3927ad"></path><path d="M0 372L0 376L30 386Z" fill="#0073dd" stroke="#0073dd"></path><path d="M65 66L27 120L105 81Z" fill="#0083e5" stroke="#0083e5"></path><path d="M28 147L0 180L56 202Z" fill="#00a1ec" stroke="#00a1ec"></path><path d="M838 299L797 268L797 316Z" fill="#00afee" stroke="#00afee"></path><path d="M838 299L834 255L797 268Z" fill="#43009d" stroke="#43009d"></path><path d="M811 462L815 400L742 402Z" fill="#05bcee" stroke="#05bcee"></path><path d="M34 513L84 445L34 429Z" fill="#3927ad" stroke="#3927ad"></path><path d="M34 513L80 556L103 479Z" fill="#43009d" stroke="#43009d"></path><path d="M835 83L783 101L790 136Z" fill="#0083e5" stroke="#0083e5"></path><path d="M790 136L783 101L767 116Z" fill="#05bcee" stroke="#05bcee"></path><path d="M0 164L0 180L28 147Z" fill="#43009d" stroke="#43009d"></path><path d="M838 299L797 316L795 332Z" fill="#00afee" stroke="#00afee"></path><path d="M804 205L847 166L790 136Z" fill="#05bcee" stroke="#05bcee"></path><path d="M815 554L766 482L723 521Z" fill="#43009d" stroke="#43009d"></path><path d="M766 482L811 462L743 468Z" fill="#43009d" stroke="#43009d"></path><path d="M27 120L0 164L28 147Z" fill="#0083e5" stroke="#0083e5"></path><path d="M858 350L838 299L795 332Z" fill="#0083e5" stroke="#0083e5"></path><path d="M677 600L739 571L676 566Z" fill="#2d3dbc" stroke="#2d3dbc"></path><path d="M0 477L34 513L34 429Z" fill="#0b62d3" stroke="#0b62d3"></path><path d="M65 66L0 102L27 120Z" fill="#00a1ec" stroke="#00a1ec"></path><path d="M27 120L0 102L0 164Z" fill="#00afee" stroke="#00afee"></path><path d="M100 36L87 0L65 66Z" fill="#00afee" stroke="#00afee"></path><path d="M162 0L87 0L136 31Z" fill="#43009d" stroke="#43009d"></path><path d="M829 453L811 462L830 496Z" fill="#0b62d3" stroke="#0b62d3"></path><path d="M791 483L811 462L766 482Z" fill="#1d50c8" stroke="#1d50c8"></path><path d="M815 400L858 350L795 332Z" fill="#43009d" stroke="#43009d"></path><path d="M0 376L0 450L34 429Z" fill="#0073dd" stroke="#0073dd"></path><path d="M35 600L93 600L80 556Z" fill="#1d50c8" stroke="#1d50c8"></path><path d="M80 556L93 600L167 529Z" fill="#05bcee" stroke="#05bcee"></path><path d="M900 228L841 205L834 255Z" fill="#3927ad" stroke="#3927ad"></path><path d="M834 255L841 205L804 205Z" fill="#00afee" stroke="#00afee"></path><path d="M0 450L0 477L34 429Z" fill="#00a1ec" stroke="#00a1ec"></path><path d="M34 513L43 552L80 556Z" fill="#3927ad" stroke="#3927ad"></path><path d="M0 531L43 552L34 513Z" fill="#2d3dbc" stroke="#2d3dbc"></path><path d="M830 496L811 462L791 483Z" fill="#0083e5" stroke="#0083e5"></path><path d="M811 462L829 453L815 400Z" fill="#05bcee" stroke="#05bcee"></path><path d="M0 46L0 102L65 66Z" fill="#00a1ec" stroke="#00a1ec"></path><path d="M851 409L858 350L815 400Z" fill="#05bcee" stroke="#05bcee"></path><path d="M838 299L900 310L834 255Z" fill="#00afee" stroke="#00afee"></path><path d="M820 50L736 72L783 101Z" fill="#3927ad" stroke="#3927ad"></path><path d="M790 0L756 0L736 72Z" fill="#1d50c8" stroke="#1d50c8"></path><path d="M900 206L847 166L841 205Z" fill="#0b62d3" stroke="#0b62d3"></path><path d="M841 205L847 166L804 205Z" fill="#2d3dbc" stroke="#2d3dbc"></path><path d="M829 453L851 409L815 400Z" fill="#05bcee" stroke="#05bcee"></path><path d="M815 554L830 496L791 483Z" fill="#3927ad" stroke="#3927ad"></path><path d="M829 453L900 421L851 409Z" fill="#0073dd" stroke="#0073dd"></path><path d="M677 600L766 600L739 571Z" fill="#0b62d3" stroke="#0b62d3"></path><path d="M739 571L815 554L723 521Z" fill="#3927ad" stroke="#3927ad"></path><path d="M0 477L0 531L34 513Z" fill="#00a1ec" stroke="#00a1ec"></path><path d="M43 552L35 600L80 556Z" fill="#00afee" stroke="#00afee"></path><path d="M847 166L835 83L790 136Z" fill="#3927ad" stroke="#3927ad"></path><path d="M27 0L0 46L65 66Z" fill="#1d50c8" stroke="#1d50c8"></path><path d="M835 83L820 50L783 101Z" fill="#2d3dbc" stroke="#2d3dbc"></path><path d="M766 600L776 600L739 571Z" fill="#0b62d3" stroke="#0b62d3"></path><path d="M87 0L27 0L65 66Z" fill="#43009d" stroke="#43009d"></path><path d="M820 50L790 0L736 72Z" fill="#1d50c8" stroke="#1d50c8"></path><path d="M776 600L815 554L739 571Z" fill="#00afee" stroke="#00afee"></path><path d="M0 600L35 600L43 552Z" fill="#1d50c8" stroke="#1d50c8"></path><path d="M900 346L858 350L851 409Z" fill="#3927ad" stroke="#3927ad"></path><path d="M900 346L900 310L858 350Z" fill="#3927ad" stroke="#3927ad"></path><path d="M858 350L900 310L838 299Z" fill="#0092ea" stroke="#0092ea"></path><path d="M847 166L900 90L835 83Z" fill="#0092ea" stroke="#0092ea"></path><path d="M900 346L851 409L900 421Z" fill="#05bcee" stroke="#05bcee"></path><path d="M900 421L829 453L900 472Z" fill="#2d3dbc" stroke="#2d3dbc"></path><path d="M835 83L832 36L820 50Z" fill="#0092ea" stroke="#0092ea"></path><path d="M820 50L832 36L790 0Z" fill="#0092ea" stroke="#0092ea"></path><path d="M900 36L832 36L835 83Z" fill="#1d50c8" stroke="#1d50c8"></path><path d="M900 310L900 228L834 255Z" fill="#00afee" stroke="#00afee"></path><path d="M900 228L900 206L841 205Z" fill="#0083e5" stroke="#0083e5"></path><path d="M27 0L0 0L0 46Z" fill="#1d50c8" stroke="#1d50c8"></path><path d="M900 472L829 453L830 496Z" fill="#1d50c8" stroke="#1d50c8"></path><path d="M900 206L900 159L847 166Z" fill="#00a1ec" stroke="#00a1ec"></path><path d="M0 531L0 600L43 552Z" fill="#0073dd" stroke="#0073dd"></path><path d="M776 600L829 600L815 554Z" fill="#0083e5" stroke="#0083e5"></path><path d="M900 491L900 472L830 496Z" fill="#05bcee" stroke="#05bcee"></path><path d="M900 36L842 0L832 36Z" fill="#0083e5" stroke="#0083e5"></path><path d="M832 36L842 0L790 0Z" fill="#00afee" stroke="#00afee"></path><path d="M869 546L830 496L815 554Z" fill="#0073dd" stroke="#0073dd"></path><path d="M829 600L869 546L815 554Z" fill="#0092ea" stroke="#0092ea"></path><path d="M869 546L900 491L830 496Z" fill="#43009d" stroke="#43009d"></path><path d="M900 159L900 90L847 166Z" fill="#3927ad" stroke="#3927ad"></path><path d="M900 600L900 527L869 546Z" fill="#2d3dbc" stroke="#2d3dbc"></path><path d="M869 546L900 527L900 491Z" fill="#0083e5" stroke="#0083e5"></path><path d="M900 90L900 36L835 83Z" fill="#0073dd" stroke="#0073dd"></path><path d="M900 36L900 0L842 0Z" fill="#00a1ec" stroke="#00a1ec"></path><path d="M829 600L900 600L869 546Z" fill="#00afee" stroke="#00afee"></path></g></svg>